<svg xmlns="http://www.w3.org/2000/svg" xmlns:xlink="http://www.w3.org/1999/xlink" width="120" zoomAndPan="magnify" viewBox="0 0 90 36.000001" height="48" preserveAspectRatio="xMidYMid meet" version="1.0"><defs><g/></defs><g fill="#a100ff" fill-opacity="1"><g transform="translate(7.054053, 26.270272)"><g><path d="M 7.765625 -17.996094 L 10.914062 -17.996094 L 10.914062 -4.738281 C 10.914062 -2.625 10.132812 -1.101562 8.5625 -0.179688 C 7.726562 0.296875 6.746094 0.535156 5.617188 0.535156 C 3.503906 0.535156 1.992188 -0.210938 1.082031 -1.707031 C 0.621094 -2.5 0.386719 -3.417969 0.386719 -4.453125 L 0.386719 -6.433594 L 3.582031 -6.433594 L 3.582031 -4.851562 C 3.582031 -3.386719 4.085938 -2.542969 5.085938 -2.316406 C 5.253906 -2.28125 5.441406 -2.261719 5.640625 -2.261719 C 6.375 -2.261719 6.929688 -2.539062 7.3125 -3.097656 C 7.613281 -3.539062 7.765625 -4.347656 7.765625 -5.527344 Z M 7.765625 -17.996094 "/></g></g></g><g fill="#a100ff" fill-opacity="1"><g transform="translate(18.729728, 26.270272)"><g><path d="M 2.074219 0 L 2.074219 -17.996094 L 9.117188 -17.996094 C 11.839844 -17.996094 13.867188 -16.886719 15.199219 -14.667969 L 15.730469 -13.632812 C 16.273438 -12.296875 16.546875 -10.757812 16.546875 -9.015625 C 16.546875 -5.601562 15.585938 -3.105469 13.65625 -1.535156 C 12.4375 -0.511719 10.921875 0 9.117188 0 Z M 5.214844 -2.886719 L 8.753906 -2.886719 C 11.195312 -2.886719 12.675781 -4.167969 13.203125 -6.726562 C 13.332031 -7.394531 13.398438 -8.144531 13.398438 -8.980469 C 13.398438 -12.542969 12.222656 -14.550781 9.867188 -15.003906 C 9.511719 -15.074219 9.140625 -15.109375 8.753906 -15.109375 L 5.214844 -15.109375 Z M 5.214844 -2.886719 "/></g></g></g><g fill="#ffffff" fill-opacity="1"><g transform="translate(35.581924, 26.270272)"><g><path d="M 3.5 -12.234375 L 3.5 0 L 1.5625 0 L 1.5625 -12.234375 Z M 3.5 -17.015625 L 3.5 -14.5625 L 1.53125 -14.5625 L 1.53125 -17.015625 Z M 3.5 -17.015625 "/></g></g><g transform="translate(40.439187, 26.270272)"><g><path d="M 9.609375 -12.234375 L 11.40625 -12.234375 L 11.40625 -2 C 11.40625 0.382812 11.085938 2.078125 10.453125 3.078125 C 10.347656 3.234375 10.238281 3.378906 10.125 3.515625 C 9.375 4.453125 8.15625 4.96875 6.46875 5.0625 C 6.289062 5.070312 6.117188 5.078125 5.953125 5.078125 C 3.796875 5.078125 2.332031 4.394531 1.5625 3.03125 C 1.289062 2.539062 1.128906 1.992188 1.078125 1.390625 L 3.0625 1.390625 C 3.144531 1.992188 3.390625 2.460938 3.796875 2.796875 C 4.359375 3.234375 5.097656 3.453125 6.015625 3.453125 C 7.273438 3.453125 8.179688 3.066406 8.734375 2.296875 C 9.191406 1.660156 9.421875 0.550781 9.421875 -1.03125 L 9.421875 -1.65625 C 8.503906 -0.382812 7.476562 0.328125 6.34375 0.484375 L 5.703125 0.53125 C 4.410156 0.53125 3.289062 0.0351562 2.34375 -0.953125 C 2.300781 -1.003906 2.257812 -1.050781 2.21875 -1.09375 C 1.1875 -2.289062 0.671875 -3.894531 0.671875 -5.90625 C 0.671875 -8.28125 1.332031 -10.082031 2.65625 -11.3125 C 3.539062 -12.15625 4.613281 -12.578125 5.875 -12.578125 C 7.394531 -12.578125 8.640625 -11.875 9.609375 -10.46875 Z M 6.09375 -10.78125 C 4.71875 -10.78125 3.742188 -10.082031 3.171875 -8.6875 C 2.859375 -7.9375 2.703125 -7.046875 2.703125 -6.015625 C 2.703125 -3.859375 3.3125 -2.410156 4.53125 -1.671875 C 4.976562 -1.398438 5.503906 -1.265625 6.109375 -1.265625 C 7.492188 -1.265625 8.457031 -1.976562 9 -3.40625 C 9.28125 -4.125 9.421875 -4.972656 9.421875 -5.953125 C 9.421875 -8.285156 8.785156 -9.789062 7.515625 -10.46875 C 7.097656 -10.675781 6.625 -10.78125 6.09375 -10.78125 Z M 6.09375 -10.78125 "/></g></g><g transform="translate(53.414694, 26.270272)"><g><path d="M 3.5 -12.234375 L 3.5 0 L 1.5625 0 L 1.5625 -12.234375 Z M 3.5 -17.015625 L 3.5 -14.5625 L 1.53125 -14.5625 L 1.53125 -17.015625 Z M 3.5 -17.015625 "/></g></g><g transform="translate(58.271957, 26.270272)"><g><path d="M 5.921875 -12.234375 L 5.921875 -10.640625 L 3.90625 -10.640625 L 3.90625 -2.265625 C 3.90625 -1.671875 4.078125 -1.332031 4.421875 -1.25 C 4.566406 -1.1875 4.757812 -1.15625 5 -1.15625 C 5.382812 -1.15625 5.691406 -1.191406 5.921875 -1.265625 L 5.921875 0.359375 C 5.316406 0.472656 4.785156 0.53125 4.328125 0.53125 C 2.941406 0.53125 2.164062 0.0078125 2 -1.03125 C 1.976562 -1.132812 1.96875 -1.257812 1.96875 -1.40625 L 1.96875 -10.640625 L 0.3125 -10.640625 L 0.3125 -12.234375 L 1.96875 -12.234375 L 1.96875 -15.59375 L 3.90625 -15.59375 L 3.90625 -12.234375 Z M 5.921875 -12.234375 "/></g></g><g transform="translate(64.759711, 26.270272)"><g><path d="M 12.5 -1.140625 L 12.5 0.3125 C 11.945312 0.457031 11.5 0.53125 11.15625 0.53125 C 10.050781 0.53125 9.398438 0.0390625 9.203125 -0.9375 C 9.179688 -1.039062 9.164062 -1.148438 9.15625 -1.265625 C 7.800781 -0.078125 6.414062 0.519531 5 0.53125 C 3.28125 0.53125 2.085938 -0.046875 1.421875 -1.203125 C 1.128906 -1.753906 0.984375 -2.378906 0.984375 -3.078125 C 0.984375 -4.660156 1.695312 -5.75 3.125 -6.34375 C 3.6875 -6.582031 4.703125 -6.789062 6.171875 -6.96875 C 6.410156 -7 6.703125 -7.039062 7.046875 -7.09375 C 8.179688 -7.238281 8.835938 -7.535156 9.015625 -7.984375 C 9.054688 -8.109375 9.078125 -8.265625 9.078125 -8.453125 L 9.078125 -8.953125 C 9.078125 -9.960938 8.445312 -10.554688 7.1875 -10.734375 C 6.925781 -10.765625 6.644531 -10.78125 6.34375 -10.78125 C 4.738281 -10.78125 3.804688 -10.195312 3.546875 -9.03125 C 3.515625 -8.894531 3.488281 -8.753906 3.46875 -8.609375 L 1.515625 -8.609375 C 1.554688 -9.734375 1.835938 -10.582031 2.359375 -11.15625 C 3.210938 -12.101562 4.566406 -12.578125 6.421875 -12.578125 C 9.160156 -12.578125 10.679688 -11.675781 10.984375 -9.875 C 11.003906 -9.675781 11.015625 -9.46875 11.015625 -9.25 L 11.015625 -2.046875 C 11.015625 -1.410156 11.367188 -1.09375 12.078125 -1.09375 C 12.210938 -1.09375 12.351562 -1.109375 12.5 -1.140625 Z M 9.078125 -3.859375 L 9.078125 -6.046875 C 8.578125 -5.816406 7.691406 -5.613281 6.421875 -5.4375 C 6.285156 -5.425781 6.128906 -5.40625 5.953125 -5.375 C 4.296875 -5.132812 3.34375 -4.597656 3.09375 -3.765625 C 3.039062 -3.566406 3.015625 -3.351562 3.015625 -3.125 C 3.015625 -2.113281 3.535156 -1.492188 4.578125 -1.265625 C 4.828125 -1.191406 5.109375 -1.15625 5.421875 -1.15625 C 6.535156 -1.15625 7.5 -1.523438 8.3125 -2.265625 C 8.8125 -2.710938 9.066406 -3.242188 9.078125 -3.859375 Z M 9.078125 -3.859375 "/></g></g><g transform="translate(77.735217, 26.270272)"><g><path d="M 3.546875 -17.015625 L 3.546875 0 L 1.578125 0 L 1.578125 -17.015625 Z M 3.546875 -17.015625 "/></g></g></g></svg>